<svg xmlns="http://www.w3.org/2000/svg" viewBox="0 0 48 48" width="48px" height="48px">
  <path fill="#4285F4" d="M24 9.5c3.9 0 6.6 1.6 8.1 2.9l6-6C34.9 3.5 30.2 1 24 1 14.9 1 7.4 6.8 4.3 14.9l7.1 5.5C13.1 14.1 18 9.5 24 9.5z"/>
  <path fill="#34A853" d="M46.5 24.5c0-1.6-.1-2.8-.3-4.1H24v8.1h12.8c-.5 2.7-2 5-4.2 6.5l6.4 5c3.7-3.4 5.8-8.4 5.8-14.5z"/>
  <path fill="#FBBC05" d="M11.4 28.4c-1.1-3.3-1.1-6.9 0-10.2L4.3 12.7C1.6 17.8 1.6 24.2 4.3 29.3l7.1-5.5z"/>
  <path fill="#EA4335" d="M24 47c5.5 0 10.1-1.8 13.5-4.9l-6.4-5c-1.8 1.2-4.1 1.9-7.1 1.9-6 0-11.1-4.1-12.9-9.6l-7.1 5.5C7.4 41.2 14.9 47 24 47z"/>
  <path fill="none" d="M0 0h48v48H0z"/>
</svg>